<svg width="15" height="15" viewBox="0 0 15 15" fill="none" xmlns="http://www.w3.org/2000/svg">
<path d="M10.8281 4.98211C10.7597 4.79674 10.6506 4.62895 10.5088 4.49122C10.3711 4.34942 10.2034 4.24028 10.0179 4.17187C9.86746 4.11345 9.64148 4.0439 9.22524 4.02496C8.77497 4.00442 8.63997 4 7.50006 4C6.36003 4 6.22503 4.00431 5.77487 4.02484C5.35864 4.0439 5.13254 4.11345 4.98222 4.17187C4.79674 4.24028 4.62895 4.34942 4.49134 4.49122C4.34953 4.62895 4.24039 4.79662 4.17187 4.98211C4.11345 5.13254 4.0439 5.35864 4.02496 5.77487C4.00442 6.22503 4 6.36003 4 7.50006C4 8.63997 4.00442 8.77497 4.02496 9.22524C4.0439 9.64148 4.11345 9.86746 4.17187 10.0179C4.24039 10.2034 4.34942 10.3711 4.49122 10.5088C4.62895 10.6506 4.79662 10.7597 4.98211 10.8281C5.13254 10.8867 5.35864 10.9562 5.77487 10.9752C6.22503 10.9957 6.35992 11 7.49994 11C8.64008 11 8.77508 10.9957 9.22513 10.9752C9.64136 10.9562 9.86746 10.8867 10.0179 10.8281C10.3902 10.6845 10.6845 10.3902 10.8281 10.0179C10.8866 9.86746 10.9561 9.64148 10.9752 9.22524C10.9957 8.77497 11 8.63997 11 7.50006C11 6.36003 10.9957 6.22503 10.9752 5.77487C10.9562 5.35864 10.8867 5.13254 10.8281 4.98211V4.98211ZM7.50006 9.69219C6.28924 9.69219 5.3077 8.71076 5.3077 7.49994C5.3077 6.28913 6.28924 5.3077 7.50006 5.3077C8.71076 5.3077 9.6923 6.28913 9.6923 7.49994C9.6923 8.71076 8.71076 9.69219 7.50006 9.69219ZM9.77897 5.73335C9.49604 5.73335 9.26665 5.50396 9.26665 5.22103C9.26665 4.93809 9.49604 4.7087 9.77897 4.7087C10.0619 4.7087 10.2913 4.93809 10.2913 5.22103C10.2912 5.50396 10.0619 5.73335 9.77897 5.73335Z" fill="#F5F5F5"/>
<path d="M8.75 7.5C8.75 8.19037 8.19037 8.75 7.5 8.75C6.80963 8.75 6.25 8.19037 6.25 7.5C6.25 6.80963 6.80963 6.25 7.5 6.25C8.19037 6.25 8.75 6.80963 8.75 7.5Z" fill="#F5F5F5"/>
<path d="M13.9182 0H1.08181C0.484314 0 0 0.484314 0 1.08181V13.9182C0 14.5157 0.484314 15 1.08181 15H13.9182C14.5157 15 15 14.5157 15 13.9182V1.08181C15 0.484314 14.5157 0 13.9182 0V0ZM11.7807 9.27555C11.7598 9.734 11.6869 10.047 11.5805 10.321C11.3568 10.8995 10.8995 11.3568 10.321 11.5805C10.0471 11.6869 9.734 11.7597 9.27567 11.7807C8.81641 11.8016 8.6697 11.8066 7.50011 11.8066C6.33041 11.8066 6.18382 11.8016 5.72445 11.7807C5.26611 11.7597 4.953 11.6869 4.67915 11.5805C4.39167 11.4724 4.13143 11.3029 3.91628 11.0837C3.69724 10.8687 3.52776 10.6083 3.41961 10.321C3.31318 10.0471 3.24028 9.734 3.21945 9.27567C3.19828 8.8163 3.19336 8.66959 3.19336 7.5C3.19336 6.33041 3.19828 6.1837 3.21934 5.72445C3.24017 5.266 3.31295 4.953 3.41938 4.67903C3.52753 4.39167 3.69713 4.13132 3.91628 3.91628C4.13132 3.69713 4.39167 3.52764 4.67903 3.41949C4.953 3.31306 5.266 3.24028 5.72445 3.21934C6.1837 3.19839 6.33041 3.19336 7.5 3.19336C8.66959 3.19336 8.8163 3.19839 9.27555 3.21945C9.734 3.24028 10.047 3.31306 10.321 3.41938C10.6083 3.52753 10.8687 3.69713 11.0838 3.91628C11.3029 4.13143 11.4725 4.39167 11.5805 4.67903C11.687 4.953 11.7598 5.266 11.7808 5.72445C11.8017 6.1837 11.8066 6.33041 11.8066 7.5C11.8066 8.66959 11.8017 8.8163 11.7807 9.27555V9.27555Z" fill="#F5F5F5"/>
</svg>
