<svg width="15" height="15" viewBox="0 0 15 15" fill="none" xmlns="http://www.w3.org/2000/svg">
<path d="M10.8572 4.9602C10.7882 4.7732 10.6781 4.60394 10.5351 4.46501C10.3961 4.32196 10.227 4.21187 10.0399 4.14286C9.88812 4.08392 9.66016 4.01377 9.24027 3.99466C8.78606 3.97395 8.64987 3.96948 7.49997 3.96948C6.34995 3.96948 6.21377 3.97383 5.75967 3.99454C5.33978 4.01377 5.1117 4.08392 4.96007 4.14286C4.77296 4.21187 4.6037 4.32196 4.46488 4.46501C4.32183 4.60394 4.21174 4.77309 4.14262 4.9602C4.08368 5.11195 4.01353 5.34003 3.99442 5.75991C3.9737 6.21401 3.96924 6.3502 3.96924 7.50021C3.96924 8.65012 3.9737 8.7863 3.99442 9.24052C4.01353 9.6604 4.08368 9.88837 4.14262 10.0401C4.21174 10.2272 4.32172 10.3964 4.46477 10.5353C4.6037 10.6784 4.77284 10.7884 4.95995 10.8575C5.1117 10.9165 5.33978 10.9867 5.75967 11.0058C6.21377 11.0265 6.34984 11.0308 7.49986 11.0308C8.64999 11.0308 8.78617 11.0265 9.24016 11.0058C9.66004 10.9867 9.88812 10.9165 10.0399 10.8575C10.4155 10.7126 10.7123 10.4157 10.8572 10.0401C10.9161 9.88837 10.9863 9.6604 11.0055 9.24052C11.0262 8.7863 11.0306 8.65012 11.0306 7.50021C11.0306 6.3502 11.0262 6.21401 11.0055 5.75991C10.9864 5.34003 10.9163 5.11195 10.8572 4.9602V4.9602ZM7.49997 9.71156C6.27854 9.71156 5.2884 8.72153 5.2884 7.5001C5.2884 6.27867 6.27854 5.28864 7.49997 5.28864C8.72128 5.28864 9.71143 6.27867 9.71143 7.5001C9.71143 8.72153 8.72128 9.71156 7.49997 9.71156ZM9.79886 5.71803C9.51344 5.71803 9.28204 5.48663 9.28204 5.20121C9.28204 4.91579 9.51344 4.68439 9.79886 4.68439C10.0843 4.68439 10.3157 4.91579 10.3157 5.20121C10.3156 5.48663 10.0843 5.71803 9.79886 5.71803Z" fill="#C4C4C4"/>
<path d="M8.93555 7.5C8.93555 8.29285 8.29285 8.93555 7.5 8.93555C6.70715 8.93555 6.06445 8.29285 6.06445 7.5C6.06445 6.70715 6.70715 6.06445 7.5 6.06445C8.29285 6.06445 8.93555 6.70715 8.93555 7.5Z" fill="#C4C4C4"/>
<path d="M13.9182 0H1.08181C0.484314 0 0 0.484314 0 1.08181V13.9182C0 14.5157 0.484314 15 1.08181 15H13.9182C14.5157 15 15 14.5157 15 13.9182V1.08181C15 0.484314 14.5157 0 13.9182 0V0ZM11.7807 9.27555C11.7598 9.734 11.6869 10.047 11.5805 10.321C11.3568 10.8995 10.8995 11.3568 10.321 11.5805C10.0471 11.6869 9.734 11.7597 9.27567 11.7807C8.81641 11.8016 8.6697 11.8066 7.50011 11.8066C6.33041 11.8066 6.18382 11.8016 5.72445 11.7807C5.26611 11.7597 4.953 11.6869 4.67915 11.5805C4.39167 11.4724 4.13143 11.3029 3.91628 11.0837C3.69724 10.8687 3.52776 10.6083 3.41961 10.321C3.31318 10.0471 3.24028 9.734 3.21945 9.27567C3.19828 8.8163 3.19336 8.66959 3.19336 7.5C3.19336 6.33041 3.19828 6.1837 3.21934 5.72445C3.24017 5.266 3.31295 4.953 3.41938 4.67903C3.52753 4.39167 3.69713 4.13132 3.91628 3.91628C4.13132 3.69713 4.39167 3.52764 4.67903 3.41949C4.953 3.31306 5.266 3.24028 5.72445 3.21934C6.1837 3.19839 6.33041 3.19336 7.5 3.19336C8.66959 3.19336 8.8163 3.19839 9.27555 3.21945C9.734 3.24028 10.047 3.31306 10.321 3.41938C10.6083 3.52753 10.8687 3.69713 11.0838 3.91628C11.3029 4.13143 11.4725 4.39167 11.5805 4.67903C11.687 4.953 11.7598 5.266 11.7808 5.72445C11.8017 6.1837 11.8066 6.33041 11.8066 7.5C11.8066 8.66959 11.8017 8.8163 11.7807 9.27555V9.27555Z" fill="#C4C4C4"/>
</svg>
